<svg width="26" height="27" viewBox="0 0 26 27" fill="none" xmlns="http://www.w3.org/2000/svg">
<path d="M2.2774 7.52007C4.45931 3.35509 7.69543 1.15683 13.6858 1.00098L12.7804 12.2283L18.0314 10.0553C19.4806 11.685 22.0162 10.5985 21.8347 8.4255C22.3784 8.06332 22.3826 7.9908 23.4644 7.88224C25.4564 13.1337 24.1876 17.9052 20.5666 21.4637C15.4967 25.6287 8.61519 25.9908 3.7256 20.1961C0.517125 16.3933 0.285223 11.3229 2.2774 7.52007Z" fill="#FCD651" fill-opacity="0.8" stroke="#565656" stroke-opacity="0.8" stroke-width="1.40342"/>
<circle cx="4.9939" cy="10.2356" r="1.99194" fill="#E9974C" fill-opacity="0.8"/>
<circle cx="4.9939" cy="10.2356" r="1.29023" stroke="#565656" stroke-opacity="0.8" stroke-width="1.40342"/>
<circle cx="12.2344" cy="21.481" r="1.99194" transform="rotate(-89.7669 12.2344 21.481)" fill="#E9974C" fill-opacity="0.8"/>
<circle cx="12.2344" cy="21.481" r="1.29023" transform="rotate(-89.7669 12.2344 21.481)" stroke="#565656" stroke-opacity="0.8" stroke-width="1.40342"/>
<path d="M16.0398 3.71629L13.8668 1L12.7803 12.2273L14.41 11.503L16.0398 3.71629Z" fill="#F2994A" fill-opacity="0.8" stroke="#565656" stroke-opacity="0.8" stroke-width="1.40342" stroke-linejoin="round"/>
<path d="M11.4485 25.8703C7.52881 25.0845 4.99361 22.5493 3.54492 20.0141C7.51891 24.284 11.865 25.2656 16.5831 23.6358C19.6011 22.4626 21.4724 21.1006 22.9211 18.3843C24.7393 14.9753 24.6768 11.5036 23.4644 7.88135C25.6208 12.8787 25.8185 18.7465 22.0157 22.5493C18.394 25.8703 14.7207 26.5262 11.4485 25.8703Z" fill="#F2994A" fill-opacity="0.8" stroke="#565656" stroke-opacity="0.8" stroke-width="1.40342" stroke-linejoin="round"/>
<circle cx="21.1146" cy="15.7598" r="2.5352" transform="rotate(-125.035 21.1146 15.7598)" fill="#E9974C" fill-opacity="0.8"/>
<circle cx="21.1146" cy="15.7598" r="1.83349" transform="rotate(-125.035 21.1146 15.7598)" stroke="#565656" stroke-opacity="0.8" stroke-width="1.40342"/>
<circle cx="6.80471" cy="6.9761" r="1.2676" fill="#E9974C" fill-opacity="0.8"/>
<circle cx="6.80471" cy="6.9761" r="0.701709" stroke="#565656" stroke-opacity="0.8" stroke-width="1.13178"/>
<circle cx="7.35398" cy="19.4767" r="1.44869" transform="rotate(-89.7669 7.35398 19.4767)" fill="#E9974C" fill-opacity="0.8"/>
<circle cx="7.35398" cy="19.4767" r="0.746977" transform="rotate(-89.7669 7.35398 19.4767)" stroke="#565656" stroke-opacity="0.8" stroke-width="1.40342"/>
<circle cx="16.0301" cy="16.2965" r="1.81086" transform="rotate(-125.035 16.0301 16.2965)" fill="#E9974C" fill-opacity="0.8"/>
<circle cx="16.0301" cy="16.2965" r="1.10915" transform="rotate(-125.035 16.0301 16.2965)" stroke="#565656" stroke-opacity="0.8" stroke-width="1.40342"/>
</svg>
