<svg width="24" height="24" viewBox="0 0 24 24" fill="none" xmlns="http://www.w3.org/2000/svg">
<g clip-path="url(#clip0)">
<path d="M12 24C18.6274 24 24 18.6274 24 12C24 5.37258 18.6274 0 12 0C5.37258 0 0 5.37258 0 12C0 18.6274 5.37258 24 12 24Z" fill="#3C5A9A"/>
<path d="M15.9014 3.68359H13.2431C11.6656 3.68359 9.91091 4.34708 9.91091 6.63376C9.91862 7.43053 9.91091 8.1936 9.91091 9.05238H8.08594V11.9565H9.96739V20.3168H13.4247V11.9013H15.7066L15.913 9.04423H13.3651C13.3651 9.04423 13.3708 7.77329 13.3651 7.4042C13.3651 6.50056 14.3054 6.55231 14.3619 6.55231C14.8094 6.55231 15.6794 6.55361 15.9027 6.55231V3.68359H15.9014V3.68359Z" fill="white"/>
</g>
<defs>
<clipPath id="clip0">
<rect width="24" height="24" fill="white"/>
</clipPath>
</defs>
</svg>
