<svg width="24" height="14" viewBox="0 0 24 14" fill="none" xmlns="http://www.w3.org/2000/svg">
<g clip-path="url(#clip0)">
<path d="M19.7677 13.382H4.33478C4.04241 13.382 3.76202 13.2659 3.55529 13.0592C3.34856 12.8524 3.23242 12.5721 3.23242 12.2797V1.25616C3.23242 0.963799 3.34856 0.683411 3.55529 0.47668C3.76202 0.269949 4.04241 0.153809 4.33478 0.153809H19.7677C20.0601 0.153809 20.3405 0.269949 20.5472 0.47668C20.7539 0.683411 20.8701 0.963799 20.8701 1.25616V12.2797C20.8701 12.5721 20.7539 12.8524 20.5472 13.0592C20.3405 13.2659 20.0601 13.382 19.7677 13.382V13.382Z" fill="#EAEAEA"/>
<path d="M5.43713 13.382H4.33478C4.04241 13.382 3.76202 13.2659 3.55529 13.0592C3.34856 12.8524 3.23242 12.5721 3.23242 12.2797V1.25616C3.23242 1.1114 3.26093 0.968053 3.31633 0.834309C3.37173 0.700566 3.45293 0.579043 3.55529 0.47668C3.65766 0.374317 3.77918 0.293119 3.91292 0.23772C4.04667 0.182322 4.19001 0.153809 4.33478 0.153809C4.47954 0.153809 4.62288 0.182322 4.75663 0.23772C4.89037 0.293119 5.01189 0.374317 5.11426 0.47668C5.21662 0.579043 5.29782 0.700566 5.35322 0.834309C5.40862 0.968053 5.43713 1.1114 5.43713 1.25616V13.382Z" fill="#D54C3F"/>
<path d="M18.665 13.382H19.7674C20.0598 13.382 20.3401 13.2659 20.5469 13.0592C20.7536 12.8524 20.8697 12.5721 20.8697 12.2797V1.25616C20.8697 0.963799 20.7536 0.683411 20.5469 0.47668C20.3401 0.269949 20.0598 0.153809 19.7674 0.153809C19.475 0.153809 19.1946 0.269949 18.9879 0.47668C18.7812 0.683411 18.665 0.963799 18.665 1.25616V13.382Z" fill="#B63524"/>
<path d="M20.3982 2.16029C20.5169 2.07739 20.6181 1.97192 20.6961 1.8499C20.774 1.72788 20.8272 1.59171 20.8525 1.44915C20.8778 1.30659 20.8748 1.16044 20.8436 1.01905C20.8125 0.877654 20.7538 0.743782 20.6709 0.625077C20.588 0.506371 20.4825 0.405156 20.3605 0.327211C20.2385 0.249266 20.1023 0.196118 19.9597 0.1708C19.8172 0.145482 19.671 0.148491 19.5296 0.179655C19.3882 0.210819 19.2544 0.269527 19.1357 0.352428L12.0512 5.51034L12.0505 5.5107L12.0497 5.51034L4.96528 0.352428C4.72554 0.185002 4.42911 0.119668 4.1412 0.1708C3.85329 0.221931 3.59749 0.38534 3.43006 0.625077C3.26264 0.864814 3.19731 1.16124 3.24844 1.44915C3.29957 1.73706 3.46298 1.99286 3.70271 2.16029L3.67332 2.13861L12.0505 8.23793L20.3982 2.16029ZM20.428 2.13861L12.0505 8.23793Z" fill="#DE5145"/>
<path d="M19.7679 0.15381C19.5331 0.15381 19.3152 0.2273 19.1366 0.352233L12.0522 5.51014L12.0514 5.51051L12.0507 5.51014L4.96624 0.352233C4.78123 0.222745 4.56079 0.153456 4.33496 0.15381H19.7679Z" fill="#EFEFEF"/>
<path d="M5.43767 3.89732L3.57984 2.05713L3.5791 2.0586C3.61805 2.09534 3.65957 2.12915 3.70367 2.16001L3.67427 2.13834L5.43804 3.42258L5.43767 3.91055" fill="#C64132"/>
<path d="M10.8263 9.18989L5.43652 13.3821L5.43689 3.85156L10.8252 9.18842" fill="#E3E3E3"/>
<path d="M10.8269 9.19L12.0512 8.23793L5.4375 3.42285V3.85167L10.8258 9.18853L10.8269 9.19Z" fill="url(#paint0_linear)"/>
<path d="M15.0127 13.3826H18.6648V3.42285L12.0506 8.2383L10.8252 9.18889L15.0127 13.3826Z" fill="url(#paint1_linear)"/>
</g>
<defs>
<linearGradient id="paint0_linear" x1="5.4375" y1="6.30661" x2="12.0512" y2="6.30661" gradientUnits="userSpaceOnUse">
<stop stop-color="#C8C8C8"/>
<stop offset="1" stop-color="#CDCDCD"/>
</linearGradient>
<linearGradient id="paint1_linear" x1="10.8252" y1="8.40255" x2="18.6648" y2="8.40255" gradientUnits="userSpaceOnUse">
<stop stop-color="#D9D9D9"/>
<stop offset="1" stop-color="#E2E2E2"/>
</linearGradient>
<clipPath id="clip0">
<rect width="24" height="13.3824" fill="white"/>
</clipPath>
</defs>
</svg>
