<svg width="24" height="25" viewBox="0 0 24 25" fill="none" xmlns="http://www.w3.org/2000/svg">
<g style="mix-blend-mode:color-dodge" clip-path="url(#clip0)">
<path d="M23.9875 12.5097C23.9875 11.5035 23.9059 10.7693 23.7292 10.0078H12.2393V14.5493H18.9836C18.8477 15.678 18.1134 17.3777 16.4817 18.5198L16.4588 18.6719L20.0917 21.4862L20.3434 21.5113C22.6549 19.3765 23.9875 16.2355 23.9875 12.5097" fill="#4285F4"/>
<path d="M12.2391 24.4756C15.5433 24.4756 18.3171 23.3878 20.3432 21.5114L16.4815 18.5198C15.4481 19.2405 14.0611 19.7436 12.2391 19.7436C9.00291 19.7436 6.25622 17.6089 5.27711 14.6582L5.13359 14.6704L1.35604 17.5939L1.30664 17.7312C3.31906 21.7289 7.45273 24.4756 12.2391 24.4756Z" fill="#34A853"/>
<path d="M5.27678 14.6584C5.01843 13.897 4.86891 13.081 4.86891 12.238C4.86891 11.3949 5.01843 10.5791 5.26318 9.81767L5.25634 9.6555L1.43145 6.68506L1.30631 6.74458C0.476896 8.4035 0.000976562 10.2664 0.000976562 12.238C0.000976562 14.2097 0.476896 16.0725 1.30631 17.7314L5.27678 14.6584" fill="#FBBC05"/>
<path d="M12.2391 4.73192C14.5371 4.73192 16.0871 5.72453 16.971 6.55404L20.4248 3.18183C18.3036 1.21019 15.5433 0 12.2391 0C7.45273 0 3.31906 2.74669 1.30664 6.74434L5.26351 9.81743C6.25622 6.86676 9.00291 4.73192 12.2391 4.73192" fill="#EB4335"/>
</g>
<defs>
<clipPath id="clip0">
<rect width="24" height="24.56" fill="white"/>
</clipPath>
</defs>
</svg>
