<svg width="24" height="24" viewBox="0 0 24 24" fill="none" xmlns="http://www.w3.org/2000/svg">
<g clip-path="url(#clip0)">
<path d="M5.50749 0.000989693H18.4928C19.2165 -0.000592313 19.9334 0.14079 20.6023 0.417006C21.2712 0.693221 21.879 1.09883 22.3907 1.61056C22.9025 2.12229 23.3081 2.73006 23.5843 3.39897C23.8605 4.06788 24.0019 4.78477 24.0003 5.50846V18.4938C24.0019 19.2175 23.8605 19.9344 23.5843 20.6033C23.3081 21.2722 22.9025 21.88 22.3907 22.3917C21.879 22.9034 21.2712 23.309 20.6023 23.5853C19.9334 23.8615 19.2165 24.0029 18.4928 24.0013H5.50749C4.78379 24.0029 4.06691 23.8615 3.398 23.5853C2.72909 23.309 2.12132 22.9034 1.60959 22.3917C1.09786 21.88 0.692238 21.2722 0.416022 20.6033C0.139806 19.9344 -0.00156888 19.2175 1.31316e-05 18.4938V5.50846C-0.00156888 4.78477 0.139806 4.06788 0.416022 3.39897C0.692238 2.73006 1.09786 2.12229 1.60959 1.61056C2.12132 1.09883 2.72909 0.693221 3.398 0.417006C4.06691 0.14079 4.78379 -0.000592313 5.50749 0.000989693V0.000989693Z" fill="url(#paint0_linear)"/>
<path d="M5.25827 6.8252C5.13187 6.8252 5.01267 6.84706 4.89987 6.89186L7.15827 9.21693L9.44174 11.5836L9.48334 11.6337L9.55 11.7004L9.61667 11.7671L9.75 11.9087L11.7084 13.9169C11.7409 13.9372 11.8356 14.0247 11.9095 14.0617C12.0047 14.1092 12.1076 14.1532 12.2137 14.1569C12.3284 14.1609 12.4455 14.1281 12.5487 14.078C12.626 14.0404 12.6604 13.9865 12.75 13.9172L15.0167 11.5756L17.3084 9.21721L19.5167 6.94227C19.3734 6.86474 19.2129 6.82456 19.05 6.82546H5.25827V6.8252ZM4.56654 7.1084C4.32574 7.33667 4.1748 7.6796 4.1748 8.0668V15.7001C4.1748 16.0135 4.27534 16.2983 4.44147 16.5167L4.758 16.2167L7.1164 13.9249L9.20814 11.8999L9.16654 11.85L6.8748 9.4916L4.58307 7.12494L4.56654 7.1084V7.1084ZM19.8167 7.18359L17.5833 9.49186L15.2999 11.8503L15.2583 11.8919L17.4332 14.0001L19.7916 16.2919L19.9332 16.4252C20.0601 16.2215 20.1332 15.9705 20.1332 15.7001V8.0668C20.1332 7.72173 20.0137 7.40866 19.8167 7.18359V7.18359ZM9.4748 12.1751L7.3916 14.2001L5.02494 16.4919L4.72494 16.7836C4.88307 16.8855 5.06307 16.9503 5.25827 16.9503H19.05C19.2847 16.9503 19.4975 16.8601 19.6751 16.7169L19.5252 16.5671L17.1585 14.2753L14.9836 12.1753L13.0252 14.1919C12.9193 14.2623 12.8484 14.3401 12.7449 14.3879C12.5783 14.4649 12.3959 14.53 12.2124 14.5273C12.0284 14.5244 11.8479 14.4524 11.6828 14.3713C11.5999 14.3305 11.5556 14.29 11.4585 14.2087L9.4748 12.1751V12.1751Z" fill="white"/>
</g>
<defs>
<linearGradient id="paint0_linear" x1="11.9883" y1="23.9042" x2="12.144" y2="-133.522" gradientUnits="userSpaceOnUse">
<stop stop-color="#70EFFF"/>
<stop offset="1" stop-color="#5770FF"/>
</linearGradient>
<clipPath id="clip0">
<rect width="24" height="24" fill="white"/>
</clipPath>
</defs>
</svg>
