<svg width="24" height="24" viewBox="0 0 24 24" fill="none" xmlns="http://www.w3.org/2000/svg">
<g clip-path="url(#clip0)">
<path d="M1.63641 21.3612H5.45456V12.0885L0 7.99756V19.7249C0 20.629 0.732281 21.3613 1.63641 21.3613V21.3612Z" fill="#4285F4"/>
<path d="M18.5459 21.3612H22.3641C23.2682 21.3612 24.0005 20.6289 24.0005 19.7248V7.99756L18.5459 12.0885V21.3612Z" fill="#34A853"/>
<path d="M18.5459 4.99769V12.0886L24.0005 7.99769V5.81589C24.0005 3.79361 21.6919 2.63861 20.0732 3.85225L18.5459 4.99769Z" fill="#FBBC04"/>
<path fill-rule="evenodd" clip-rule="evenodd" d="M5.4541 12.0885V4.99756L11.9995 9.90668L18.545 4.99756V12.0885L11.9995 16.9976L5.4541 12.0885Z" fill="#EA4335"/>
<path d="M0 5.8159V7.9977L5.45456 12.0886V4.99769L3.92728 3.85226C2.30859 2.63862 0 3.79362 0 5.8158V5.8159Z" fill="#C5221F"/>
</g>
<defs>
<clipPath id="clip0">
<rect width="24" height="24" fill="white"/>
</clipPath>
</defs>
</svg>
